#!OML:ASF H:\Terrain\Patient Classification 1\Terrain2\Thursday\justin.ASF
:FULLY-SPECIFIED
:DEGREES
2635
root 20.1724 20.9514 1.42908 177.993 -18.4263 -174.738
lowerback 5.7206 0.575752 3.05428
upperback 3.137 0.676778 2.96294
thorax 0.0286631 0.24226 1.29495
lowerneck -11.861 3.54306 -8.54879
upperneck 41.6793 2.41009 1.40108
head 17.0164 -1.75818 2.09578
rclavicle 4.79568e-014 3.18055e-015
rhumerus -23.1035 2.75698 -81.1369
rradius 52.0402
rwrist -20.279
rhand -21.8351 11.3785
rfingers 7.12502
rthumb 4.56801 -18.5523
lclavicle 4.79568e-014 3.18055e-015
lhumerus -36.2873 8.29902 84.7256
lradius 30.1866
lwrist 1.2041
lhand -18.54 18.5387
lfingers 7.12502
lthumb 7.74917 48.3767
rfemur -7.45081 1.24146 27.6062
rtibia 28.3101
rfoot -16.1998 -1.20871
rtoes 15.8441
lfemur -14.8338 9.51789 -13.3246
ltibia 40.6117
lfoot -11.0998 1.78674
ltoes -7.23487
2636
root 20.1603 20.9239 1.38844 178.054 -18.5962 -175.044
lowerback 5.65669 0.480272 2.74212
upperback 3.07249 0.547254 2.88182
thorax -0.00593649 0.179939 1.39329
lowerneck -11.9728 3.54845 -8.50665
upperneck 41.8854 2.38183 1.35981
head 17.1662 -1.7973 2.06231
rclavicle 3.80673e-014 -4.17448e-014
rhumerus -23.0731 2.68576 -81.2969
rradius 51.7443
rwrist -20.0408
rhand -21.5459 11.3029
rfingers 7.12502
rthumb 4.84722 -18.6216
lclavicle 3.80673e-014 -4.17448e-014
lhumerus -36.2576 8.70789 84.4338
lradius 29.7966
lwrist 0.640026
lhand -18.3836 18.8787
lfingers 7.12502
lthumb 7.90007 48.7111
rfemur -7.39403 1.40188 27.2386
rtibia 28.5592
rfoot -16.4913 -1.09993
rtoes 17.5307
lfemur -13.7172 9.58969 -13.7077
ltibia 39.4416
lfoot -11.8503 1.49644
ltoes -7.48502
2637
root 20.1514 20.897 1.35307 177.988 -18.8749 -174.918
lowerback 5.55559 0.308683 2.73957
upperback 3.06293 0.310276 2.99429
thorax 0.0411139 0.0590375 1.52386
lowerneck -12.1629 3.54668 -8.55739
upperneck 41.974 2.45244 1.24205
head 17.2659 -1.8047 2.02985
rclavicle -4.86029e-014 -3.18055e-014
rhumerus -22.8611 2.90573 -81.4182
rradius 51.3226
rwrist -19.9464
rhand -21.6091 11.8112
rfingers 7.12502
rthumb 4.78622 -18.1147
lclavicle -4.86029e-014 -3.18055e-014
lhumerus -36.1531 9.16173 84.2892
lradius 29.5591
lwrist 0.12064
lhand -18.1196 19.5748
lfingers 7.12502
lthumb 8.1549 49.3974
rfemur -7.44117 1.46937 27.3317
rtibia 28.8299
rfoot -16.6014 -1.02916
rtoes 18.9138
lfemur -12.7652 9.39611 -13.5866
ltibia 38.2513
lfoot -12.5228 0.871079
ltoes -4.76508
2638
root 20.1433 20.8912 1.31639 177.983 -19.1308 -174.8
lowerback 5.31822 0.185227 2.64029
upperback 3.02652 0.130657 3.13761
thorax 0.136212 -0.0330463 1.73668
lowerneck -12.1694 3.55205 -8.61457
upperneck 42.0865 2.44197 1.22426
head 17.3329 -1.84035 2.02648
rclavicle -1.1281e-014 -2.18663e-014
rhumerus -22.8278 3.01092 -81.4963
rradius 51.0772
rwrist -19.8105
rhand -21.9487 11.8915
rfingers 7.12502
rthumb 4.45829 -18.0416
lclavicle -1.1281e-014 -2.18663e-014
lhumerus -36.1189 9.18366 84.4104
lradius 29.4375
lwrist 0.239671
lhand -18.4472 19.4108
lfingers 7.12502
lthumb 7.83875 49.2455
rfemur -7.54039 1.4643 27.4682
rtibia 29.1266
rfoot -16.7377 -1.23369
rtoes 18.9666
lfemur -11.9402 8.75081 -13.4868
ltibia 37.0017
lfoot -13.3079 1.06834
ltoes -2.7001
2639
root 20.1386 20.8987 1.28316 178.104 -19.3106 -175.05
lowerback 5.21846 0.147972 2.23739
upperback 2.91186 0.0784302 3.11997
thorax 0.0721278 -0.0576327 1.94686
lowerneck -12.0162 3.51274 -8.6781
upperneck 42.2213 2.24761 1.37688
head 17.3778 -1.93451 2.06852
rclavicle 4.96962e-015 1.19271e-015
rhumerus -23.0172 2.79122 -81.5906
rradius 50.9256
rwrist -19.7053
rhand -21.9992 11.3999
rfingers 7.12502
rthumb 4.40957 -18.5342
lclavicle 4.96962e-015 1.19271e-015
lhumerus -36.1729 8.99804 84.4539
lradius 29.3124
lwrist 0.590145
lhand -18.5514 18.4644
lfingers 7.12502
lthumb 7.73817 48.3028
rfemur -7.59991 1.44287 27.2729
rtibia 29.4169
rfoot -16.9357 -1.65993
rtoes 17.5409
lfemur -11.2435 7.99893 -13.8407
ltibia 35.7419
lfoot -13.9079 1.8995
ltoes -4.11292
2640
root 20.1318 20.9086 1.25368 178.384 -19.6049 -175.572
lowerback 5.13468 0.0906125 1.68464
upperback 2.78986 0.00162589 2.98201
thorax -0.00739738 -0.0911986 2.11854
lowerneck -12.0196 3.43608 -8.78552
upperneck 42.3532 2.03029 1.5893
head 17.4629 -2.02941 2.14658
rclavicle 4.50247e-014 -4.77083e-015
rhumerus -23.1075 2.36866 -81.7206
rradius 50.6561
rwrist -19.7082
rhand -21.6569 10.8886
rfingers 7.12502
rthumb 4.74009 -19.0383
lclavicle 4.50247e-014 -4.77083e-015
lhumerus -36.0414 9.03716 84.3499
lradius 29.0609
lwrist 0.396982
lhand -18.1397 18.2628
lfingers 7.12502
lthumb 8.13548 48.0862
rfemur -7.74148 1.09502 26.7936
rtibia 29.7562
rfoot -17.228 -2.17885
rtoes 14.2412
lfemur -10.6978 7.22743 -14.5228
ltibia 34.5154
lfoot -14.1277 2.50287
ltoes -3.69335
2641
root 20.1205 20.9089 1.22257 178.651 -20.0098 -176.017
lowerback 4.95065 -0.0236928 1.20396
upperback 2.71194 -0.157703 2.88446
thorax 0.018645 -0.167436 2.29525
lowerneck -12.0129 3.38945 -8.79209
upperneck 42.3126 1.94566 1.65007
head 17.4421 -2.0514 2.16217
rclavicle -1.25731e-014 1.90833e-014
rhumerus -23.1655 1.99997 -81.8783
rradius 50.38
rwrist -19.5684
rhand -21.3496 10.4459
rfingers 7.12502
rthumb 5.03676 -19.4742
lclavicle -1.25731e-014 1.90833e-014
lhumerus -35.8273 9.23311 84.2322
lradius 28.7214
lwrist -0.0616114
lhand -18.0237 18.7138
lfingers 7.12502
lthumb 8.24742 48.5328
rfemur -7.86288 0.657476 26.351
rtibia 30.1237
rfoot -17.7563 -2.49967
rtoes 13.0289
lfemur -10.1845 6.47496 -15.1433
ltibia 33.3955
lfoot -14.2713 3.03859
ltoes -0.403651
2642
root 20.1138 20.9079 1.19015 178.758 -20.3195 -176.139
lowerback 4.7655 -0.109673 0.942495
upperback 2.6937 -0.282175 2.89901
thorax 0.107871 -0.230185 2.4621
lowerneck -11.9617 3.34602 -8.78392
upperneck 42.1444 1.90477 1.67834
head 17.334 -2.04105 2.16907
rclavicle -2.44008e-014 -2.42517e-014
rhumerus -23.3192 1.63206 -82.0293
rradius 50.206
rwrist -19.2141
rhand -21.4171 10.1734
rfingers 7.12502
rthumb 4.97164 -19.7482
lclavicle -2.44008e-014 -2.42517e-014
lhumerus -35.5492 9.5178 84.0583
lradius 28.2764
lwrist -0.561093
lhand -17.8705 18.9582
lfingers 7.12502
lthumb 8.39531 48.7714
rfemur -7.92451 0.430635 26.2667
rtibia 30.4074
rfoot -18.1583 -2.73146
rtoes 13.0135
lfemur -9.71853 5.99286 -15.3985
ltibia 32.4837
lfoot -14.2314 3.59329
ltoes 1.57799
2643
root 20.1093 20.9127 1.15566 178.83 -20.5856 -176.192
lowerback 4.54026 -0.154395 0.767034
upperback 2.69465 -0.350716 2.91977
thorax 0.237838 -0.265238 2.58362
lowerneck -11.931 3.28133 -8.70245
upperneck 42.0366 1.85189 1.5666
head 17.2737 -2.05046 2.09593
rclavicle 5.01434e-014 -1.39149e-014
rhumerus -23.5433 1.16638 -82.1835
rradius 49.9423
rwrist -18.9274
rhand -21.7881 10.3412
rfingers 7.12502
rthumb 4.61339 -19.5886
lclavicle 5.01434e-014 -1.39149e-014
lhumerus -35.2938 9.89549 83.7924
lradius 27.8838
lwrist -1.15912
lhand -17.2738 18.8771
lfingers 7.12502
lthumb 8.97115 48.6664
rfemur -7.95824 0.182362 26.2607
rtibia 30.5583
rfoot -18.3108 -2.955
rtoes 12.6056
lfemur -9.35932 5.7053 -15.5628
ltibia 31.8041
lfoot -14.1838 4.11455
ltoes 1.06258
2644
root 20.0967 20.907 1.12627 178.748 -20.9133 -175.916
lowerback 4.38256 -0.225957 1.07578
upperback 2.67092 -0.441047 2.9809
thorax 0.303628 -0.308569 2.47549
lowerneck -11.8371 3.22343 -8.62242
upperneck 41.9538 1.79986 1.41642
head 17.2126 -2.07146 2.00382
rclavicle 2.18663e-014 2.34566e-014
rhumerus -23.7339 0.775788 -82.3527
rradius 49.5108
rwrist -18.745
rhand -21.9143 10.5105
rfingers 7.12502
rthumb 4.49154 -19.4218
lclavicle 2.18663e-014 2.34566e-014
lhumerus -35.2442 10.0437 83.621
lradius 27.8371
lwrist -1.36503
lhand -17.1489 19.3624
lfingers 7.12502
lthumb 9.0917 49.1465
rfemur -7.91043 -0.315257 26.5161
rtibia 30.6217
rfoot -18.2971 -2.97505
rtoes 11.8135
lfemur -8.99948 5.37559 -15.4261
ltibia 31.2972
lfoot -14.538 4.66603
ltoes 0.48772
2645
root 20.0875 20.8942 1.1054 178.803 -21.1678 -175.777
lowerback 4.29355 -0.247009 1.25839
upperback 2.60084 -0.460759 3.00376
thorax 0.280954 -0.315296 2.39666
lowerneck -11.7969 3.13382 -8.61643
upperneck 41.8849 1.68799 1.37935
head 17.1736 -2.11159 1.96832
rclavicle 7.86193e-014 -7.95139e-015
rhumerus -23.8845 0.401636 -82.5153
rradius 49.0778
rwrist -18.2555
rhand -22.0365 10.5259
rfingers 7.12502
rthumb 4.37348 -19.409
lclavicle 7.86193e-014 -7.95139e-015
lhumerus -35.182 9.81517 83.6913
lradius 28.0557
lwrist -0.985249
lhand -17.7137 19.9801
lfingers 7.12502
lthumb 8.54665 49.7872
rfemur -7.94455 -0.50766 26.6256
rtibia 30.6539
rfoot -18.2721 -2.9343
rtoes 11.8524
lfemur -8.805 5.1831 -15.4275
ltibia 30.8933
lfoot -14.9513 5.02621
ltoes 0.376125
2646
root 20.086 20.8949 1.08543 179.228 -21.3607 -176.208
lowerback 4.10545 -0.231496 0.765414
upperback 2.49667 -0.441618 2.92113
thorax 0.280341 -0.302628 2.58675
lowerneck -11.8314 3.02339 -8.57779
upperneck 41.7245 1.5979 1.31023
head 17.102 -2.12645 1.91974
rclavicle -3.8117e-014 -1.90833e-014
rhumerus -24.1071 0.140323 -82.7068
rradius 48.7927
rwrist -17.7805
rhand -22.5407 10.4898
rfingers 7.12502
rthumb 3.88665 -19.4545
lclavicle -3.8117e-014 -1.90833e-014
lhumerus -35.0202 9.55407 83.8201
lradius 28.3129
lwrist -0.666482
lhand -18.0257 20.9214
lfingers 7.12502
lthumb 8.24552 50.7405
rfemur -8.14578 -0.445983 26.2069
rtibia 30.6442
rfoot -18.4838 -2.98176
rtoes 13.1811
lfemur -8.90731 5.15098 -15.9783
ltibia 30.5752
lfoot -15.0669 5.3503
ltoes -0.320303
2647
root 20.0843 20.905 1.06538 179.595 -21.5765 -176.512
lowerback 3.84796 -0.235377 0.37982
upperback 2.44022 -0.451298 2.87211
thorax 0.368565 -0.306105 2.75162
lowerneck -11.8899 2.93172 -8.52423
upperneck 41.4863 1.5534 1.27205
head 16.9886 -2.10414 1.89281
rclavicle 4.01545e-014 -6.36111e-015
rhumerus -24.3611 -0.093964 -82.9242
rradius 48.5708
rwrist -17.6284
rhand -22.7881 10.3648
rfingers 7.12502
rthumb 3.64775 -19.5837
lclavicle 4.01545e-014 -6.36111e-015
lhumerus -34.8269 9.40725 83.8804
lradius 28.5352
lwrist -0.495982
lhand -18.1642 22.3054
lfingers 7.12502
lthumb 8.11187 52.1297
rfemur -8.25801 -0.549351 25.9319
rtibia 30.5724
rfoot -18.5999 -3.07718
rtoes 13.999
lfemur -9.04604 4.95948 -16.3586
ltibia 30.3541
lfoot -15.1871 5.62691
ltoes 0.214671
2648
root 20.0798 20.9126 1.04565 179.702 -21.7509 -176.431
lowerback 3.68664 -0.239804 0.413465
upperback 2.41592 -0.457977 2.91402
thorax 0.43416 -0.309128 2.77486
lowerneck -11.9917 2.87919 -8.57003
upperneck 41.3989 1.52142 1.34169
head 16.9663 -2.09628 1.93205
rclavicle -8.50301e-014 -3.22031e-014
rhumerus -24.5903 -0.364697 -83.1243
rradius 48.2818
rwrist -17.4471
rhand -22.582 10.061
rfingers 7.12502
rthumb 3.84677 -19.884
lclavicle -8.50301e-014 -3.22031e-014
lhumerus -34.7002 9.3063 83.9239
lradius 28.5428
lwrist 0.11095
lhand -18.3856 20.0347
lfingers 7.12502
lthumb 7.89821 49.8671
rfemur -8.21503 -0.715337 26.0286
rtibia 30.4457
rfoot -18.4413 -3.23188
rtoes 14.1405
lfemur -9.05835 4.64943 -16.3098
ltibia 30.2161
lfoot -15.6664 5.46753
ltoes 5.50744
